<svg version="1.0" xmlns="http://www.w3.org/2000/svg"
 width="135.000000pt" height="45.000000pt" viewBox="0 0 135.000000 45.000000"
 preserveAspectRatio="xMidYMid meet">

<g transform="translate(0.000000,45.000000) scale(0.100000,-0.100000)"
fill="#000000" stroke="none">
<path class="text" fill="#000000" d="M527 384 c-4 -4 -7 -18 -7 -31 0 -21 4 -24 28 -21 21 2 27 8 27 28 0
18 -6 26 -20 28 -12 2 -24 0 -28 -4z"/>
<path class="text" fill="#000000" d="M1080 335 c0 -48 2 -55 20 -55 18 0 20 7 20 55 0 48 -2 55 -20 55
-18 0 -20 -7 -20 -55z"/>
<path class="text" fill="#000000" d="M54 357 c-2 -7 -3 -69 -2 -138 l3 -124 65 -3 c90 -3 130 20 130 77 0
29 -6 44 -20 54 -20 14 -20 15 -3 45 14 25 15 34 5 56 -6 15 -23 31 -38 36
-38 15 -134 13 -140 -3z m110 -33 c19 -7 21 -45 4 -62 -7 -7 -22 -12 -35 -12
-20 0 -23 5 -23 40 0 41 13 50 54 34z m20 -130 c19 -18 19 -20 6 -45 -8 -13
-21 -19 -45 -19 -34 0 -35 1 -35 40 0 38 2 40 29 40 16 0 37 -7 45 -16z"/>
<path class="text" fill="#000000" d="M319 271 c-23 -24 -29 -38 -29 -74 0 -25 3 -53 6 -62 20 -50 164 -64
164 -15 0 15 -7 17 -45 12 -46 -5 -75 8 -75 34 0 11 16 14 65 14 l65 0 0 35
c0 80 -92 114 -151 56z m99 -33 c3 -15 -4 -18 -37 -18 -43 0 -50 7 -29 28 18
18 62 11 66 -10z"/>
<path class="text" fill="#000000" d="M520 184 c0 -107 -1 -116 -20 -121 -11 -3 -20 -12 -20 -19 0 -21 76
-19 84 2 3 9 6 69 6 135 l0 119 -25 0 -25 0 0 -116z"/>
<path class="text" fill="#000000" d="M649 271 c-24 -25 -29 -37 -29 -78 1 -70 34 -103 105 -103 55 0 95
44 95 103 0 60 -7 75 -41 92 -47 25 -96 19 -130 -14z m111 -30 c25 -48 2 -111
-40 -111 -45 0 -69 80 -34 114 21 22 61 20 74 -3z"/>
<path class="text" fill="#000000" d="M850 287 c0 -8 16 -57 36 -110 28 -76 33 -100 25 -116 -16 -28 -14
-31 18 -31 27 0 29 4 70 123 23 67 41 128 41 135 0 6 -11 12 -24 12 -21 0 -26
-8 -41 -65 -10 -36 -21 -68 -25 -70 -3 -2 -16 27 -29 66 -19 60 -25 69 -47 69
-13 0 -24 -6 -24 -13z"/>
<path class="text" fill="#000000" d="M1192 284 c-17 -12 -22 -24 -20 -47 2 -26 10 -36 45 -52 49 -23 59
-55 17 -55 -14 0 -34 5 -45 10 -16 9 -19 7 -19 -13 0 -17 7 -27 23 -31 69 -18
117 6 117 60 0 32 -4 37 -45 55 -60 26 -62 54 -4 46 37 -5 40 -3 37 16 -2 18
-11 23 -43 25 -25 2 -49 -3 -63 -14z"/>
</g>
</svg>
